<?xml version="1.0" standalone="no"?>
<!DOCTYPE svg PUBLIC "-//W3C//DTD SVG 20010904//EN"
 "http://www.w3.org/TR/2001/REC-SVG-20010904/DTD/svg10.dtd">
<svg version="1.0" xmlns="http://www.w3.org/2000/svg"
 width="342.000000pt" height="252.000000pt" viewBox="0 0 342.000000 252.000000"
 preserveAspectRatio="xMidYMid meet">
<metadata>
Created by potrace 1.16, written by Peter Selinger 2001-2019
</metadata>
<g transform="translate(0.000000,252.000000) scale(0.099708,-0.099605)"
fill="#000000" stroke="none">
<path d="M947 2377 c-286 -100 -500 -433 -637 -994 l-11 -43 -77 0 c-84 0
-144 -21 -150 -53 -5 -26 55 -47 138 -47 l70 0 0 -76 c0 -118 45 -258 103
-322 22 -23 51 -29 62 -11 4 5 13 90 21 187 8 97 16 186 19 198 4 20 10 21
372 27 203 4 459 10 571 14 l202 6 -1 -114 c0 -63 -4 -154 -8 -204 -8 -99 -6
-115 15 -115 38 0 83 145 106 338 l12 102 38 0 c54 0 78 15 78 48 0 38 -21 65
-68 86 l-39 18 -7 86 c-32 428 -186 737 -423 850 -75 36 -83 37 -198 40 -105
2 -129 -1 -188 -21z m318 -195 c108 -51 206 -183 265 -354 25 -75 58 -220 75
-335 l7 -43 -100 0 c-136 0 -416 -24 -712 -60 -302 -37 -302 -37 -296 -7 68
317 155 500 320 676 102 107 188 150 306 151 62 0 85 -5 135 -28z"/>
<path d="M2465 1851 c-37 -16 -56 -48 -62 -105 l-6 -56 -56 0 c-62 0 -81 -11
-81 -47 0 -29 27 -43 85 -43 l47 0 -7 -122 c-3 -68 -13 -149 -21 -181 -17 -71
-88 -243 -114 -277 -48 -63 -57 45 -21 243 11 60 17 115 14 122 -8 21 -39 27
-101 20 l-58 -6 1 58 0 58 -42 3 c-23 2 -51 -2 -63 -8 -32 -17 -53 -67 -45
-109 3 -20 6 -57 5 -83 0 -36 4 -49 18 -57 27 -15 61 -2 68 25 4 15 13 24 26
24 16 0 19 -5 14 -22 -30 -110 -31 -273 -2 -342 24 -58 50 -76 106 -76 77 0
121 30 183 123 28 43 28 42 47 -26 7 -26 25 -61 40 -77 24 -26 35 -30 83 -30
65 0 115 32 162 104 17 25 33 46 36 46 4 0 10 -12 14 -28 11 -47 53 -109 89
-131 25 -16 50 -21 103 -21 92 0 171 38 242 116 91 99 203 361 171 399 -13 16
-47 20 -66 7 -7 -4 -23 -35 -37 -69 -36 -88 -118 -220 -169 -272 -116 -117
-178 -78 -178 113 l0 95 38 6 c87 13 147 38 184 75 36 36 38 41 38 102 0 53
-6 77 -31 127 -42 85 -92 121 -165 121 -47 0 -59 -4 -92 -35 -52 -46 -96 -132
-126 -241 -28 -103 -52 -167 -100 -261 -81 -159 -89 -145 -82 137 3 118 9 245
12 283 l7 67 62 0 c47 0 66 4 78 18 40 44 5 82 -72 82 l-53 0 6 45 c9 55 -5
82 -49 101 -38 16 -51 16 -80 5z m539 -406 c1 -39 -4 -58 -18 -74 -21 -23 -66
-29 -66 -8 0 24 31 122 47 146 14 22 16 23 25 6 6 -10 11 -41 12 -70z"/>
<path d="M1940 692 c0 -4 15 -22 33 -40 44 -43 83 -43 125 1 18 18 32 36 32
40 0 13 -55 7 -74 -8 -17 -13 -22 -13 -42 0 -25 16 -74 21 -74 7z"/>
<path d="M819 579 c-62 -36 -74 -68 -74 -199 0 -94 3 -120 18 -145 33 -53 65
-69 142 -73 130 -6 174 51 175 221 0 113 -19 164 -73 197 -45 28 -139 27 -188
-1z m164 -69 c29 -34 42 -107 32 -180 -10 -73 -44 -110 -100 -110 -32 0 -52 7
-72 24 -28 24 -28 26 -28 136 0 110 0 112 28 136 42 36 107 34 140 -6z"/>
<path d="M1940 578 c-67 -46 -75 -66 -75 -198 0 -105 2 -122 21 -147 38 -52
81 -73 146 -73 97 0 159 43 174 119 6 30 5 31 -30 31 -24 0 -36 -5 -36 -14 0
-8 -12 -28 -26 -45 -22 -27 -32 -31 -74 -31 -37 0 -56 6 -77 24 -26 23 -28 30
-32 116 -5 136 21 180 107 180 35 0 49 -6 73 -29 16 -16 29 -37 29 -45 0 -12
10 -16 36 -16 35 0 36 1 30 31 -15 76 -77 119 -174 119 -45 0 -67 -5 -92 -22z"/>
<path d="M260 380 l0 -210 30 0 30 0 0 82 0 83 83 -83 c73 -73 87 -82 119 -82
20 0 39 4 42 9 3 5 -41 54 -99 109 l-105 100 95 88 c52 49 95 94 95 101 0 8
-13 13 -36 13 -30 0 -47 -10 -112 -71 l-77 -70 -3 70 -3 71 -29 0 -30 0 0
-210z"/>
<path d="M1302 428 c4 -182 13 -213 71 -248 45 -28 150 -28 195 0 55 34 66 74
66 250 l1 155 -32 3 -32 3 -3 -161 -3 -162 -28 -24 c-40 -34 -105 -33 -138 2
-23 24 -24 32 -27 185 l-3 159 -36 0 -35 0 4 -162z"/>
<path d="M2430 380 l0 -210 30 0 30 0 0 82 0 83 83 -83 c73 -73 87 -82 119
-82 20 0 39 4 42 9 3 5 -41 54 -99 109 l-105 100 95 88 c52 49 95 94 95 101 0
8 -13 13 -36 13 -30 0 -47 -10 -112 -71 l-77 -70 -3 70 -3 71 -29 0 -30 0 0
-210z"/>
<path d="M3013 573 c-3 -10 -39 -101 -79 -203 -39 -102 -70 -188 -67 -192 2
-5 17 -8 33 -8 26 0 31 6 47 50 l18 51 99 -3 98 -3 18 -45 c15 -39 22 -45 49
-48 22 -2 31 1 31 11 0 8 -34 102 -75 208 -41 106 -75 194 -75 196 0 2 -20 3
-45 3 -34 0 -47 -4 -52 -17z m55 -251 c-39 -2 -72 -1 -75 1 -2 2 13 47 34 100
l38 95 36 -96 37 -97 -70 -3z"/>
</g>
</svg>
